<svg width="64" height="51" viewBox="0 0 64 51" fill="none" xmlns="http://www.w3.org/2000/svg">
<path d="M32 18.6667C36 18.6667 64 30.6667 64 34.6667C64 38.6667 36 50.6667 32 50.6667C28 50.6667 0 38.6667 0 34.6667C0 30.6667 28 18.6667 32 18.6667Z" fill="#505050"/>
<path d="M32 9.33334C36 9.33334 64 21.3333 64 25.3333C64 29.3333 36 41.3333 32 41.3333C28 41.3333 0 29.3333 0 25.3333C0 21.3333 28 9.33334 32 9.33334Z" fill="#2D2D2D"/>
<path d="M32 0C36 0 64 12 64 16C64 20 36 32 32 32C28 32 0 20 0 16C0 12 28 0 32 0Z" fill="black"/>
</svg>
